<svg id="_x31_-maps" enable-background="new 0 0 512 512" height="512" viewBox="0 0 512 512" width="512" xmlns="http://www.w3.org/2000/svg"><g id="XMLID_166_"><g id="XMLID_87_"><path id="XMLID_191_" d="m383.475 64.257c-33.42-34.025-78.266-52.937-126.275-53.252-47.879-.341-93.016 18.102-126.996 51.859-33.983 33.76-52.698 78.732-52.698 126.631 0 36.25 10.812 71.151 31.266 100.929 22.386 32.592 46.222 67.796 68.849 104.396l58.951 95.351c4.193 6.781 11.457 10.83 19.43 10.83 7.973-.001 15.235-4.05 19.428-10.83l47.935-77.532c30.527-49.377 54.811-86.568 78.737-120.591 20.773-29.54 31.972-64.287 32.382-100.486.544-48.05-17.57-93.261-51.009-127.305zm14.477 54.285-67.919 67.919c.652-19.761-6.53-39.736-21.58-54.787-13.976-13.977-32.559-21.674-52.326-21.674-.812 0-1.619.033-2.427.059l65.932-65.932c18.359 7.985 35.167 19.478 49.573 34.145 11.796 12.008 21.434 25.589 28.747 40.27zm-180.009 27.274c10.199-10.2 23.76-15.816 38.184-15.816s27.984 5.617 38.184 15.816c21.051 21.051 21.054 55.303.009 76.358l-.02.02c-10.198 10.193-23.754 15.806-38.173 15.806-14.424 0-27.984-5.617-38.184-15.816-21.054-21.055-21.054-55.313 0-76.368zm39.125-114.813c14.298.094 28.276 2.052 41.662 5.74l-87.859 87.859-56.627-56.627c28.499-23.948 64.114-36.975 101.75-36.975.355 0 .718.001 1.074.003zm-117.315 50.766 56.976 56.976-93.402 93.403c-3.836-13.766-5.822-28.083-5.822-42.653 0-40.342 14.96-78.338 42.248-107.726zm-29.008 171.246 71.475-71.475c-.652 19.761 6.53 39.735 21.581 54.786 13.977 13.977 32.56 21.674 52.326 21.674.812 0 1.618-.033 2.426-.059l-88.2 88.2c-15.174-23.257-30.445-45.712-45.096-67.042-5.689-8.281-10.536-17.011-14.512-26.084zm274.996 27.526c-24.162 34.358-48.646 71.854-79.39 121.579l-47.935 77.533c-.724 1.172-1.824 1.347-2.416 1.347s-1.693-.175-2.418-1.348l-58.95-95.351c-4.358-7.049-8.758-14.042-13.182-20.973l224.79-224.788c5.62 16.75 8.452 34.539 8.245 52.794-.366 32.141-10.304 62.988-28.744 89.207z"/><path id="XMLID_201_" d="m307.418 265.841-3.165 3.166c-3.904 3.906-3.903 10.238.002 14.143 1.953 1.952 4.512 2.928 7.07 2.928 2.56 0 5.119-.977 7.072-2.93l3.165-3.166c3.904-3.906 3.903-10.238-.002-14.143-3.907-3.905-10.237-3.903-14.142.002z"/><path id="XMLID_204_" d="m278.94 294.319-63.56 63.561c-3.905 3.905-3.905 10.237 0 14.143 1.953 1.952 4.512 2.929 7.071 2.929s5.119-.977 7.071-2.929l63.561-63.561c3.905-3.905 3.905-10.237 0-14.143-3.906-3.904-10.236-3.904-14.143 0z"/></g></g></svg>